<svg width="170" height="90" viewBox="0 0 170 90" fill="none" xmlns="http://www.w3.org/2000/svg">
<rect x="0.5" y="0.5" width="169" height="89" rx="3.5" stroke="#AFB1B8"/>
<path d="M60.4876 61.2777C60.7175 61.5633 60.84 61.9211 60.8336 62.2883C60.8453 62.5278 60.8032 62.7669 60.7104 62.9879C60.6176 63.2089 60.4765 63.4061 60.2975 63.5649C59.851 63.9036 59.2977 64.0691 58.7393 64.0311H56V57.6262H58.6832C59.2129 57.5908 59.7383 57.7412 60.1698 58.0517C60.3431 58.1973 60.4803 58.3814 60.5706 58.5893C60.6609 58.7973 60.7019 59.0235 60.6902 59.2501C60.706 59.6034 60.5954 59.9508 60.3786 60.2295C60.1704 60.4839 59.8826 60.6604 59.5621 60.7301C59.9255 60.7967 60.2535 60.9907 60.4876 61.2777ZM57.2746 60.3108H58.4215C58.6821 60.3302 58.941 60.2546 59.1507 60.098C59.2368 60.0197 59.3038 59.9225 59.3465 59.814C59.3892 59.7055 59.4064 59.5885 59.3969 59.4722C59.405 59.3564 59.3874 59.2402 59.3453 59.1319C59.3033 59.0237 59.2379 58.9262 59.1538 58.8465C58.9378 58.6854 58.6709 58.6087 58.4028 58.6306H57.2746V60.3108ZM59.2629 62.767C59.3549 62.6868 59.4273 62.5864 59.4743 62.4735C59.5213 62.3606 59.5418 62.2383 59.534 62.1162C59.541 61.9927 59.5197 61.8692 59.4716 61.7552C59.4235 61.6413 59.35 61.54 59.2567 61.4591C59.0323 61.2921 58.7563 61.2101 58.4776 61.2276H57.2746V62.9892H58.4931C58.7674 63.0051 59.0389 62.9267 59.2629 62.767Z" fill="#AFB1B8"/>
<path d="M65.9725 64.0314L64.4798 61.5283H63.9188V64.0314H62.6349V57.6265H65.0657C65.6784 57.5835 66.2841 57.7784 66.7579 58.1709C67.0977 58.5185 67.3026 58.9766 67.3358 59.4625C67.3689 59.9484 67.2281 60.4302 66.9386 60.8211C66.6387 61.1661 66.2291 61.3961 65.7793 61.4719L67.3687 64.0314H65.9725ZM63.9188 60.6553H64.9691C65.6983 60.6553 66.0629 60.332 66.0629 59.6853C66.0704 59.5532 66.0504 59.4211 66.0042 59.2972C65.9581 59.1733 65.8868 59.0604 65.7949 58.9656C65.5645 58.7732 65.2677 58.6799 64.9691 58.7059H63.9064L63.9188 60.6553Z" fill="#AFB1B8"/>
<path d="M72.9907 62.7421H70.4321L69.9803 64.0312H68.634L70.9838 57.6982H72.4391L74.7795 64.0312H73.4333L72.9907 62.7421ZM72.6479 61.7721L71.713 59.0687L70.7781 61.7721H72.6479Z" fill="#AFB1B8"/>
<path d="M81.7759 64.0309H80.5013L77.6435 59.6754V64.0309H76.372V57.626H77.6435L80.5013 62.0065V57.626H81.7759V64.0309Z" fill="#AFB1B8"/>
<path d="M89.0496 62.4981C88.7861 62.9817 88.3845 63.375 87.8965 63.6276C87.3417 63.909 86.7259 64.0477 86.1046 64.0313H83.8358V57.6263H86.1046C86.7249 57.61 87.3398 57.7453 87.8965 58.0206C88.3844 58.2674 88.7864 58.6569 89.0496 59.1376C89.3119 59.6585 89.4486 60.2341 89.4486 60.8178C89.4486 61.4016 89.3119 61.9772 89.0496 62.4981ZM87.5911 62.3448C87.9549 61.9193 88.1549 61.377 88.1549 60.8163C88.1549 60.2555 87.9549 59.7133 87.5911 59.2878C87.1514 58.9024 86.578 58.7067 85.9955 58.7433H85.1104V62.8892H85.9955C86.578 62.9258 87.1514 62.7302 87.5911 62.3448Z" fill="#AFB1B8"/>
<path d="M73.7885 22C73.7885 22 90.24 28.236 89.891 37.2599V52.5229C89.891 52.5229 73.4519 46.2838 73.7947 37.2599L73.7885 22Z" fill="#AFB1B8"/>
<path d="M104.548 48.9495C107.655 46.8027 111.248 45.4729 115 45.0821V40.3042C110.677 41.9769 107.01 45.0099 104.548 48.9495Z" fill="#AFB1B8"/>
<path d="M102.681 50.3889C105.224 45.2477 109.633 41.2804 115 39.303V25.5356C115 25.5356 91.5708 34.4187 92.0663 47.2693V68.9999C92.0663 68.9999 93.1103 68.6025 94.7526 67.8578C94.7526 67.1632 94.7526 66.4623 94.8274 65.7583C95.3123 59.7925 98.1371 54.2641 102.681 50.3889Z" fill="#AFB1B8"/>
<path d="M100.453 58.4616C100.576 56.9545 100.85 55.4638 101.272 54.0122C98.443 57.3588 96.7297 61.5116 96.3732 65.8866C96.3389 66.2996 96.3202 66.7126 96.3109 67.1382C97.6416 66.4967 99.1904 65.6957 100.817 64.7539C100.402 62.684 100.279 60.5658 100.453 58.4616Z" fill="#AFB1B8"/>
<path d="M101.384 58.5398C101.228 60.4436 101.326 62.3597 101.674 64.2377C108.075 60.3922 115.268 54.4503 114.991 47.2693V46.6436C110.417 47.1573 106.139 49.1646 102.812 52.357C102.033 54.3354 101.552 56.4192 101.384 58.5398Z" fill="#AFB1B8"/>
</svg>
