<svg width="170" height="90" viewBox="0 0 170 90" fill="none" xmlns="http://www.w3.org/2000/svg">
<rect x="0.5" y="0.5" width="169" height="89" rx="3.5" stroke="#AFB1B8"/>
<path d="M85.7405 43.3533C85.3226 42.7432 85.1226 42.022 85.1701 41.2962V38.3135C85.1701 37.3992 85.3592 36.7044 85.7373 36.2291C86.1155 35.7537 86.7651 35.517 87.686 35.5191C88.5513 35.5191 89.1656 35.7213 89.5288 36.1259C89.925 36.6421 90.1178 37.2733 90.0736 37.91V38.6109H88.5256V37.9009C88.5311 37.6685 88.5161 37.4361 88.4808 37.2061C88.4585 37.0488 88.3806 36.9033 88.2596 36.7934C88.1007 36.675 87.9004 36.6175 87.6988 36.6326C87.4867 36.6176 87.2764 36.6782 87.1091 36.8025C86.9742 36.9243 86.8844 37.0838 86.8527 37.2576C86.8083 37.5011 86.7879 37.7479 86.7918 37.995V41.6147C86.7674 41.964 86.8357 42.3134 86.9905 42.6312C87.0675 42.7387 87.1744 42.824 87.2994 42.8775C87.4244 42.9311 87.5626 42.9508 87.6988 42.9346C87.8971 42.9501 88.0939 42.8912 88.2468 42.7708C88.373 42.6523 88.4541 42.4976 88.4776 42.3308C88.5137 42.0907 88.5298 41.8482 88.5256 41.6056V40.8714H90.0736V41.5419C90.1171 42.2056 89.929 42.8644 89.5384 43.4171C89.1827 43.86 88.5769 44.0815 87.686 44.0815C86.795 44.0815 86.1219 43.8449 85.7405 43.3533Z" fill="#AFB1B8"/>
<path d="M92.1857 43.3837C91.7947 42.9194 91.5992 42.2428 91.5992 41.3477V38.2104C91.5992 37.3244 91.7947 36.6538 92.1857 36.1987C92.5767 35.7436 93.2305 35.517 94.1471 35.5191C95.0573 35.5191 95.7079 35.7456 96.0989 36.1987C96.4899 36.6538 96.6886 37.3244 96.6886 38.2104V41.3477C96.6886 42.2337 96.4899 42.9134 96.0925 43.3806C95.6951 43.8479 95.0477 44.0815 94.1471 44.0815C93.2466 44.0815 92.5799 43.8449 92.1857 43.3837ZM94.8682 42.6312C95.0083 42.3404 95.072 42.0219 95.0541 41.7027V37.8615C95.0721 37.5485 95.0094 37.2361 94.8714 36.9512C94.7929 36.8414 94.6833 36.7547 94.5553 36.7011C94.4272 36.6474 94.2858 36.629 94.1471 36.6478C94.0081 36.6294 93.8664 36.6481 93.7379 36.7017C93.6094 36.7553 93.4992 36.8417 93.4196 36.9512C93.2787 37.2353 93.2148 37.5481 93.2337 37.8615V41.7209C93.2143 42.0402 93.2781 42.3591 93.4196 42.6494C93.5099 42.7473 93.6212 42.8257 93.7461 42.8795C93.8711 42.9332 94.0067 42.961 94.1439 42.961C94.2812 42.961 94.4168 42.9332 94.5417 42.8795C94.6666 42.8257 94.778 42.7473 94.8682 42.6494V42.6312Z" fill="#AFB1B8"/>
<path d="M98.5505 35.6104H100.217L101.47 41.3989L102.752 35.6104H104.374L104.537 43.9656H103.339L103.211 38.1588L101.973 43.9656H101.012L99.7299 38.1375L99.6114 43.9656H98.3999L98.5505 35.6104Z" fill="#AFB1B8"/>
<path d="M106.406 35.6104H109.002C110.497 35.6104 111.245 36.4012 111.245 37.9828C111.245 39.4977 110.458 40.2542 108.883 40.2521H107.999V43.9656H106.396L106.406 35.6104ZM108.624 39.1812C108.782 39.2002 108.943 39.1865 109.095 39.1409C109.247 39.0953 109.387 39.019 109.505 38.9172C109.689 38.6351 109.77 38.3036 109.736 37.9737C109.744 37.7188 109.718 37.464 109.659 37.2153C109.636 37.1322 109.596 37.0542 109.541 36.986C109.486 36.9178 109.417 36.8606 109.338 36.8178C109.116 36.7168 108.87 36.6709 108.624 36.6843H108.002V39.1812H108.624Z" fill="#AFB1B8"/>
<path d="M113.556 35.6104H115.277L117.043 43.9656H115.549L115.2 42.0391H113.665L113.306 43.9656H111.79L113.556 35.6104ZM115.027 41.0713L114.428 37.5642L113.828 41.0713H115.027Z" fill="#AFB1B8"/>
<path d="M118.469 35.6104H119.591L121.738 40.3765V35.6104H123.068V43.9656H122.001L119.841 38.9901V43.9656H118.466L118.469 35.6104Z" fill="#AFB1B8"/>
<path d="M126.183 40.7799L124.398 35.6221H125.901L126.991 38.9352L128.013 35.6221H129.484L127.722 40.7799V43.9656H126.183V40.7799Z" fill="#AFB1B8"/>
<path d="M88.2148 47.6191V48.056H86.9072V51.4512H86.3592V48.056H85.0452V47.6191H88.2148Z" fill="#AFB1B8"/>
<path d="M92.3138 51.4514H91.8908C91.8478 51.454 91.8054 51.441 91.7722 51.415C91.7402 51.3928 91.7157 51.3622 91.7017 51.327L91.3235 50.4169H89.5095L89.1313 51.327C89.1206 51.3651 89.1008 51.4004 89.0736 51.4302C89.0401 51.4556 88.9979 51.4685 88.955 51.4666H88.532L90.1345 47.6348H90.6921L92.3138 51.4514ZM89.6601 50.0285H91.1729L90.5319 48.4691C90.4846 48.3512 90.445 48.2306 90.4133 48.1081C90.3909 48.1809 90.3716 48.2507 90.3524 48.3113L90.2947 48.4721L89.6601 50.0285Z" fill="#AFB1B8"/>
<path d="M95.0765 51.0751C95.1769 51.0801 95.2774 51.0801 95.3778 51.0751C95.4644 51.0666 95.5502 51.0514 95.6342 51.0296C95.7127 51.0113 95.7898 50.988 95.8649 50.9598C95.9354 50.9325 96.0059 50.8991 96.0797 50.8657V50.004H95.4387C95.4228 50.0048 95.407 50.0026 95.3921 49.9973C95.3772 49.9921 95.3636 49.984 95.3521 49.9736C95.3416 49.965 95.3333 49.9543 95.3277 49.9422C95.3222 49.9301 95.3196 49.917 95.3201 49.9038V49.6095H96.5636V51.0781C96.4621 51.1469 96.3549 51.2077 96.2431 51.2602C96.1288 51.3136 96.0098 51.3572 95.8874 51.3907C95.7563 51.4272 95.6223 51.4535 95.4867 51.4695C95.3314 51.4859 95.1752 51.494 95.0188 51.4938C94.7424 51.496 94.4682 51.4476 94.2112 51.3512C93.9712 51.2599 93.7532 51.1236 93.5702 50.9507C93.3918 50.776 93.2513 50.5698 93.1568 50.3438C93.0557 50.0898 93.0057 49.8202 93.0093 49.5488C93.006 49.2757 93.0548 49.0043 93.1536 48.7477C93.2457 48.5207 93.3865 48.314 93.567 48.1409C93.7499 47.9685 93.968 47.8332 94.208 47.7434C94.4824 47.6456 94.7737 47.5973 95.0669 47.6008C95.2161 47.6006 95.3651 47.6117 95.5124 47.6341C95.6426 47.6542 95.7704 47.6868 95.8938 47.7312C96.0059 47.7711 96.1133 47.822 96.2143 47.883C96.3125 47.9428 96.4057 48.0098 96.4931 48.0832L96.3393 48.3199C96.3272 48.3415 96.3093 48.3597 96.2873 48.3725C96.2653 48.3853 96.2401 48.3923 96.2143 48.3927C96.1788 48.3916 96.1444 48.3811 96.1149 48.3624C96.0668 48.3381 96.0156 48.3078 95.9579 48.2714C95.8897 48.2309 95.8179 48.1964 95.7431 48.1682C95.6476 48.1319 95.549 48.1035 95.4483 48.0832C95.314 48.0598 95.1777 48.0486 95.0413 48.0498C94.8298 48.0476 94.6199 48.0837 94.4227 48.156C94.2444 48.2238 94.0836 48.3273 93.9516 48.4595C93.8188 48.5972 93.7173 48.7594 93.6535 48.9359C93.5103 49.3509 93.5103 49.7983 93.6535 50.2133C93.7237 50.3935 93.8328 50.5579 93.974 50.6958C94.1055 50.8273 94.265 50.9307 94.4419 50.9992C94.6457 51.0655 94.8617 51.0913 95.0765 51.0751Z" fill="#AFB1B8"/>
<path d="M100.185 51.0143H101.935V51.4512H99.6499V47.6191H100.198L100.185 51.0143Z" fill="#AFB1B8"/>
<path d="M103.755 51.4512H103.207V47.6191H103.755V51.4512Z" fill="#AFB1B8"/>
<path d="M105.794 47.6369C105.826 47.6545 105.855 47.6782 105.877 47.7067L108.22 50.5953C108.217 50.5498 108.217 50.5042 108.22 50.4587C108.22 50.4163 108.22 50.3738 108.22 50.3343V47.6035H108.697V51.4509H108.422C108.381 51.4541 108.34 51.4468 108.303 51.4297C108.27 51.4106 108.241 51.3859 108.217 51.3569L105.877 48.4713C105.877 48.5168 105.877 48.5593 105.877 48.6018C105.877 48.6443 105.877 48.6837 105.877 48.7201V51.4509H105.419V47.6187H105.704C105.735 47.6187 105.766 47.6249 105.794 47.6369Z" fill="#AFB1B8"/>
<path d="M112.732 47.6191V48.0409H110.79V49.3061H112.364V49.7127H110.79V51.0204H112.732V51.4421H110.226V47.6191H112.732Z" fill="#AFB1B8"/>
<path d="M55.3035 23.9539L79.6385 30.4953V53.4173L55.3035 46.879V23.9539ZM53.7427 22V47.9925L81.1961 55.3743V29.3848L53.7427 22Z" fill="#AFB1B8"/>
<path d="M68.4565 67.4402L41 60.0522V34.0625L68.4565 41.4474V67.4402Z" fill="#AFB1B8"/>
<path d="M54.1978 23.6596L78.2155 30.1189L68.0014 39.7912L43.9806 33.3288L54.1978 23.6596ZM53.7427 22L41 34.0631L68.4565 41.4478L81.196 29.3847L53.7427 22Z" fill="#AFB1B8"/>
<path d="M70.0013 65.978L81.196 55.3774L70.0013 52.3647V65.978Z" fill="#AFB1B8"/>
</svg>
