<svg width="170" height="90" viewBox="0 0 170 90" fill="none" xmlns="http://www.w3.org/2000/svg">
<rect x="0.5" y="0.5" width="169" height="89" rx="3.5" stroke="#AFB1B8"/>
<path d="M81.977 21.9345H82.1136C82.3666 21.9345 82.6398 21.9599 82.9105 21.9828C84.1031 22.067 85.2873 22.2455 86.4521 22.5168V19.6535C85.2528 19.3526 84.0297 19.1578 82.7966 19.0712C82.3286 19.0356 81.8303 19.0127 81.3193 19H80.8917C78.4168 19.0093 75.9526 19.3271 73.5555 19.946C70.8253 20.6269 68.2047 21.6928 65.7716 23.1119V51.5086C68.1143 50.2357 70.6071 49.2643 73.1913 48.6173C75.2316 48.0967 77.3175 47.7765 79.4194 47.6612H79.5029C79.8546 47.6434 80.2062 47.6332 80.5679 47.6306V44.7216C77.8367 44.7567 75.1193 45.1178 72.4728 45.7972C71.4938 46.0515 70.5477 46.3261 69.6598 46.6313L68.6479 46.9746V24.8334L69.0805 24.6249C72.3817 23.0595 75.9522 22.1486 79.5965 21.9421C79.6268 21.9399 79.6573 21.9399 79.6876 21.9421C80.0898 21.9218 80.4946 21.9116 80.8917 21.9116H81.3269H81.3471C81.5571 21.9167 81.767 21.9218 81.977 21.9345Z" fill="#AFB1B8"/>
<path d="M89.1108 24.9323C88.4455 24.9323 87.7878 24.9095 87.1528 24.8611C86.3939 24.8052 85.6147 24.7137 84.8761 24.589C84.4258 24.5128 83.9831 24.4212 83.553 24.322V52.3932C85.3737 52.844 87.2433 53.0644 89.1184 53.0493C91.5931 53.0393 94.0571 52.7224 96.4546 52.1059C99.1853 51.4241 101.807 50.3583 104.241 48.94V21.0493C101.899 22.3215 99.4069 23.2937 96.8239 23.9431C94.3032 24.5906 91.7125 24.9228 89.1108 24.9323ZM100.335 25.418L101.347 25.0773V47.226L100.915 47.4346C99.2552 48.224 97.5224 48.8467 95.7412 49.2934C93.5782 49.8531 91.3545 50.1409 89.1209 50.1504C88.4531 50.1504 87.7903 50.1224 87.1477 50.0665L86.4546 50.0054V47.3176V27.2286L87.2616 27.282C87.8485 27.3201 88.4556 27.3379 89.1159 27.3379C91.9514 27.3279 94.7749 26.9657 97.5221 26.2597C98.4657 26.0105 99.4043 25.7308 100.335 25.418Z" fill="#AFB1B8"/>
<path d="M67.7372 61.2125C67.5917 61.0616 67.4163 60.9431 67.2224 60.8647C67.0285 60.7863 66.8203 60.7497 66.6114 60.7573C66.3888 60.7544 66.1678 60.7959 65.9613 60.8794C65.7719 60.9548 65.5998 61.0681 65.4554 61.2125C65.3125 61.3573 65.2013 61.5305 65.129 61.7211C65.0497 61.9208 65.0102 62.1342 65.0127 62.3492V66.1432C65.0036 66.4106 65.0546 66.6765 65.1619 66.9213C65.2515 67.1158 65.3808 67.2891 65.5414 67.4299C65.693 67.5576 65.871 67.6497 66.0625 67.6995C66.247 67.7513 66.4376 67.7779 66.6291 67.7783C66.8404 67.7804 67.0496 67.7353 67.2413 67.6461C67.431 67.5631 67.6028 67.4439 67.7473 67.2952C67.8882 67.1478 68.0005 66.9753 68.0787 66.7866C68.1598 66.5953 68.2011 66.3893 68.2001 66.1814V65.7567H67.2085V66.0949C67.2114 66.2104 67.1916 66.3253 67.1503 66.4331C67.118 66.5139 67.0688 66.5867 67.0061 66.6467C66.9446 66.6963 66.8742 66.7335 66.7986 66.7561C66.7317 66.7784 66.6617 66.7904 66.5912 66.7917C66.5027 66.802 66.413 66.7886 66.3313 66.7529C66.2495 66.7171 66.1786 66.6603 66.1257 66.5882C66.0322 66.4357 65.9864 66.2586 65.9942 66.0796V62.5424C65.988 62.3463 66.0297 62.1516 66.1156 61.9754C66.1671 61.8953 66.2399 61.8314 66.3258 61.7909C66.4117 61.7505 66.5072 61.7351 66.6013 61.7465C66.6868 61.7435 66.7717 61.7613 66.8488 61.7985C66.9259 61.8357 66.9929 61.8912 67.044 61.9601C67.155 62.1058 67.213 62.2853 67.2085 62.4687V62.7967H68.19V62.4102C68.192 62.1832 68.1508 61.9579 68.0686 61.7465C67.9953 61.5477 67.8825 61.3661 67.7372 61.2125Z" fill="#AFB1B8"/>
<path d="M73.6289 61.169C73.3127 60.902 72.9136 60.7545 72.5006 60.752C72.2986 60.7528 72.0983 60.7889 71.9087 60.8588C71.7161 60.9278 71.5384 61.0331 71.385 61.169C71.2207 61.3167 71.0896 61.4978 71.0005 61.7005C70.9006 61.9322 70.8514 62.1828 70.8563 62.4354V66.0743C70.8495 66.3302 70.8987 66.5846 71.0005 66.8193C71.0902 67.015 71.2215 67.1886 71.385 67.3279C71.5366 67.4687 71.7147 67.5776 71.9087 67.6483C72.0983 67.7181 72.2986 67.7543 72.5006 67.7551C72.7027 67.7547 72.903 67.7186 73.0926 67.6483C73.2899 67.5766 73.4719 67.4679 73.6289 67.3279C73.7871 67.186 73.9145 67.0129 74.0033 66.8193C74.1051 66.5846 74.1543 66.3302 74.1475 66.0743V62.4354C74.1524 62.1828 74.1032 61.9322 74.0033 61.7005C73.915 61.5 73.7877 61.3193 73.6289 61.169ZM73.1659 66.0743C73.1743 66.1713 73.1609 66.2689 73.1268 66.36C73.0926 66.4511 73.0386 66.5333 72.9686 66.6007C72.8376 66.7105 72.6725 66.7707 72.5019 66.7707C72.3313 66.7707 72.1661 66.7105 72.0352 66.6007C71.9652 66.5333 71.9112 66.4511 71.877 66.36C71.8429 66.2689 71.8295 66.1713 71.8378 66.0743V62.4354C71.8295 62.3384 71.8429 62.2407 71.877 62.1496C71.9112 62.0585 71.9652 61.9763 72.0352 61.909C72.1661 61.7991 72.3313 61.739 72.5019 61.739C72.6725 61.739 72.8376 61.7991 72.9686 61.909C73.0386 61.9763 73.0926 62.0585 73.1268 62.1496C73.1609 62.2407 73.1743 62.3384 73.1659 62.4354V66.0743Z" fill="#AFB1B8"/>
<path d="M81.3673 67.6993V60.8105H80.4136L79.1614 64.4571H79.1437L77.8814 60.8105H76.9378V67.6993H77.9218V63.5086H77.9395L78.9034 66.4711H79.3941L80.3656 63.5086H80.3833V67.6993H81.3673Z" fill="#AFB1B8"/>
<path d="M86.958 61.2935C86.8065 61.1236 86.6152 60.9942 86.4015 60.9172C86.1712 60.8423 85.9301 60.8062 85.6881 60.8104H84.2259V67.6991H85.2074V65.0087H85.7134C86.0196 65.0227 86.3243 64.9579 86.5988 64.8206C86.8219 64.6967 87.008 64.5149 87.1376 64.2942C87.2512 64.111 87.3277 63.907 87.3628 63.6941C87.4014 63.4348 87.4192 63.1729 87.4159 62.9108C87.4254 62.58 87.3931 62.2494 87.3197 61.9267C87.2543 61.6884 87.1298 61.4705 86.958 61.2935ZM86.452 63.394C86.4478 63.5187 86.4167 63.641 86.361 63.7525C86.3049 63.8585 86.2161 63.9432 86.108 63.9941C85.9626 64.0591 85.804 64.0888 85.6451 64.0806H85.1973V61.7386H85.7032C85.8556 61.7311 86.0075 61.7607 86.146 61.825C86.2474 61.8832 86.328 61.9723 86.3762 62.0793C86.4298 62.2003 86.459 62.3308 86.4622 62.4633C86.4622 62.6082 86.4622 62.7608 86.4622 62.921C86.4622 63.0812 86.4723 63.2465 86.4622 63.394H86.452Z" fill="#AFB1B8"/>
<path d="M91.6076 60.8105H90.8032L89.2853 67.6993H90.2669L90.5553 66.2193H91.8935L92.1819 67.6993H93.1634L91.6076 60.8105ZM90.702 65.281L91.1852 62.7838H91.2029L91.6835 65.281H90.702Z" fill="#AFB1B8"/>
<path d="M97.9497 64.9606H97.932L96.4495 60.8105H95.506V67.6993H96.4875V63.5569H96.5077L98.0078 67.6993H98.9312V60.8105H97.9497V64.9606Z" fill="#AFB1B8"/>
<path d="M103.948 60.8105L103.158 63.5493H103.138L102.349 60.8105H101.309L102.657 64.7877V67.6993H103.639V64.7877L104.987 60.8105H103.948Z" fill="#AFB1B8"/>
<path d="M65 69.6447H65.4731V70.972H65.7943V69.6447H66.2649V69.3726H65V69.6447Z" fill="#AFB1B8"/>
<path d="M68.9767 69.3726L68.3569 70.972H68.6984L68.83 70.6084H69.4675L69.6041 70.972H69.9532L69.3182 69.3726H68.9767ZM68.9261 70.3389L69.1437 69.7464L69.3612 70.3389H68.9261Z" fill="#AFB1B8"/>
<path d="M72.9079 70.3821H73.2773V70.5881C73.1694 70.6746 73.0358 70.722 72.8978 70.7229C72.8333 70.7265 72.7689 70.7145 72.7099 70.688C72.6509 70.6614 72.5991 70.6211 72.5588 70.5703C72.474 70.4485 72.4322 70.3017 72.4399 70.1533C72.4399 69.7973 72.5942 69.6193 72.9003 69.6193C72.9809 69.6112 73.0617 69.6325 73.128 69.6791C73.1944 69.7257 73.2419 69.7947 73.2621 69.8735L73.5783 69.8125C73.51 69.4997 73.2849 69.3421 72.9003 69.3421C72.6947 69.3366 72.4947 69.4103 72.3413 69.5481C72.2607 69.6276 72.1983 69.7239 72.1586 69.8302C72.1188 69.9365 72.1026 70.0502 72.1111 70.1634C72.1017 70.3823 72.1749 70.5966 72.316 70.7636C72.3943 70.8444 72.4892 70.9071 72.594 70.9475C72.6988 70.9879 72.8111 71.0049 72.9231 70.9975C73.1734 71.0045 73.4165 70.9133 73.6011 70.7432V70.1126H72.9079V70.3821Z" fill="#AFB1B8"/>
<path d="M76.9226 69.3726H76.5988V70.972H77.7195V70.7H76.9226V69.3726Z" fill="#AFB1B8"/>
<path d="M80.3175 69.3726H79.9937V70.972H80.3175V69.3726Z" fill="#AFB1B8"/>
<path d="M83.6365 70.4406L82.9813 69.3726H82.6676V70.972H82.9686V69.9269L83.6112 70.972H83.9325V69.3726H83.6365V70.4406Z" fill="#AFB1B8"/>
<path d="M86.6367 70.2677H87.4336V69.9956H86.6367V69.6447H87.4943V69.3726H86.3129V70.972H87.5272V70.7H86.6367V70.2677Z" fill="#AFB1B8"/>
<path d="M93.9122 70.0032H93.2823V69.3726H92.961V70.972H93.2823V70.2728H93.9122V70.972H94.2335V69.3726H93.9122V70.0032Z" fill="#AFB1B8"/>
<path d="M96.9302 70.2677H97.7296V69.9956H96.9302V69.6447H97.7903V69.3726H96.6089V70.972H97.8207V70.7H96.9302V70.2677Z" fill="#AFB1B8"/>
<path d="M101.023 70.2679C101.302 70.2246 101.443 70.0771 101.443 69.8228C101.451 69.7548 101.441 69.6859 101.413 69.6232C101.386 69.5606 101.342 69.5065 101.286 69.4668C101.142 69.3941 100.98 69.3616 100.818 69.3727H100.14V70.9722H100.462V70.3035H100.525C100.593 70.2992 100.662 70.3114 100.725 70.3391C100.772 70.368 100.811 70.4082 100.839 70.456L101.188 70.9646H101.572L101.377 70.6518C101.291 70.4974 101.17 70.3658 101.023 70.2679ZM100.699 70.0466H100.462V69.6448H100.715C100.825 69.6359 100.936 69.6489 101.041 69.683C101.064 69.7036 101.083 69.7293 101.095 69.7581C101.107 69.7869 101.113 69.8181 101.111 69.8494C101.11 69.8807 101.101 69.9112 101.087 69.9387C101.072 69.9663 101.051 69.9901 101.026 70.0085C100.92 70.0409 100.81 70.0538 100.699 70.0466Z" fill="#AFB1B8"/>
<path d="M104.11 70.2677H104.906V69.9956H104.11V69.6447H104.97V69.3726H103.786V70.972H105V70.7H104.11V70.2677Z" fill="#AFB1B8"/>
</svg>
