<svg width="170" height="90" viewBox="0 0 170 90" fill="none" xmlns="http://www.w3.org/2000/svg">
<rect x="0.5" y="0.5" width="169" height="89" rx="3.5" stroke="#AFB1B8"/>
<path d="M71.3455 65.7948C71.3605 65.7952 71.3753 65.7985 71.389 65.8043C71.4027 65.8102 71.415 65.8187 71.4252 65.8291L71.631 66.0448C71.4713 66.2194 71.2738 66.359 71.0523 66.4541C70.7928 66.5579 70.5131 66.6081 70.2317 66.6012C69.9674 66.6064 69.7047 66.5597 69.4601 66.4639C69.2395 66.376 69.0412 66.244 68.8788 66.0767C68.713 65.9032 68.5853 65.6999 68.5033 65.4787C68.4134 65.2321 68.369 64.9725 68.3721 64.7115C68.3684 64.4488 68.4164 64.1878 68.5135 63.9419C68.6034 63.7193 68.7389 63.516 68.9122 63.3439C69.0879 63.1751 69.298 63.0425 69.5295 62.9542C69.7829 62.8606 70.0526 62.814 70.3243 62.8169C70.5767 62.8111 70.8277 62.8536 71.0625 62.9419C71.2663 63.0262 71.4533 63.143 71.6155 63.2875L71.4432 63.5179C71.4313 63.5341 71.4165 63.5482 71.3995 63.5596C71.3792 63.5728 71.3546 63.5789 71.33 63.5767C71.3033 63.575 71.2776 63.5665 71.2554 63.5522L71.1629 63.4909L71.0342 63.4125C70.9787 63.3834 70.9211 63.358 70.8619 63.3365C70.7856 63.3105 70.7074 63.29 70.6278 63.2753C70.5269 63.2575 70.4244 63.2493 70.3218 63.2508C70.1261 63.2484 69.932 63.2834 69.7507 63.3537C69.5817 63.4188 69.4292 63.5174 69.3032 63.6429C69.1749 63.7764 69.0761 63.9331 69.0125 64.1037C68.9401 64.2988 68.9044 64.5046 68.9071 64.7115C68.904 64.9217 68.9397 65.1307 69.0125 65.3291C69.0753 65.4983 69.1723 65.654 69.2981 65.7875C69.4159 65.9119 69.5619 66.0092 69.725 66.0718C69.8929 66.1381 70.0731 66.1715 70.2549 66.1698C70.3599 66.1714 70.4648 66.1648 70.5687 66.1502C70.7383 66.1305 70.901 66.0743 71.0445 65.986C71.1165 65.9407 71.1845 65.8899 71.2477 65.834C71.2742 65.81 71.309 65.7961 71.3455 65.7948Z" fill="#AFB1B8"/>
<path d="M77.2871 64.7108C77.2903 64.9709 77.2432 65.2292 77.1482 65.473C77.0644 65.6941 76.9323 65.8958 76.7608 66.0648C76.5892 66.2338 76.382 66.3662 76.1528 66.4533C75.6492 66.6363 75.0925 66.6363 74.589 66.4533C74.3613 66.3648 74.1554 66.2321 73.9845 66.0636C73.8131 65.8916 73.68 65.6882 73.5936 65.4657C73.4083 64.972 73.4083 64.4325 73.5936 63.9388C73.6813 63.7162 73.8141 63.5122 73.9845 63.3384C74.1568 63.1752 74.3626 63.0476 74.589 62.9635C75.0919 62.7772 75.6499 62.7772 76.1528 62.9635C76.3813 63.0519 76.588 63.1846 76.7598 63.3531C76.9292 63.5235 77.0612 63.7243 77.1482 63.9437C77.2435 64.1892 77.2906 64.4492 77.2871 64.7108ZM76.747 64.7108C76.751 64.5028 76.718 64.2956 76.6492 64.0981C76.5916 63.929 76.4979 63.7729 76.374 63.6399C76.2534 63.5139 76.1049 63.4152 75.9393 63.3507C75.5734 63.2167 75.1684 63.2167 74.8024 63.3507C74.6368 63.4152 74.4884 63.5139 74.3678 63.6399C74.2422 63.7722 74.1475 63.9284 74.09 64.0981C73.9591 64.4971 73.9591 64.9246 74.09 65.3235C74.148 65.4931 74.2427 65.6492 74.3678 65.7818C74.4885 65.907 74.637 66.0049 74.8024 66.0685C75.169 66.1991 75.5728 66.1991 75.9393 66.0685C76.1048 66.0049 76.2533 65.907 76.374 65.7818C76.4974 65.6484 76.591 65.4925 76.6492 65.3235C76.7183 65.1261 76.7513 64.9189 76.747 64.7108Z" fill="#AFB1B8"/>
<path d="M81.3408 65.3535L81.3948 65.4907C81.4154 65.4417 81.4334 65.3976 81.454 65.3535C81.4736 65.3074 81.4959 65.2624 81.5209 65.2187L82.8352 62.9422C82.861 62.903 82.8841 62.8785 82.9098 62.8712C82.9448 62.861 82.9814 62.8569 83.0179 62.8589H83.4062V66.5615H82.9458V63.8391C82.9458 63.8048 82.9458 63.7656 82.9458 63.7239C82.9434 63.6815 82.9434 63.6389 82.9458 63.5965L81.6238 65.9048C81.607 65.9394 81.5801 65.9686 81.5464 65.989C81.5126 66.0095 81.4734 66.0202 81.4334 66.02H81.3588C81.3188 66.0205 81.2794 66.0099 81.2456 65.9894C81.2118 65.969 81.185 65.9396 81.1685 65.9048L79.8078 63.5818C79.8078 63.6259 79.8078 63.67 79.8078 63.7141C79.8078 63.7582 79.8078 63.7974 79.8078 63.8317V66.5542H79.3629V62.8589H79.7512C79.7877 62.8569 79.8243 62.861 79.8593 62.8712C79.8912 62.8862 79.9166 62.9113 79.9313 62.9422L81.274 65.2211C81.3003 65.2633 81.3227 65.3075 81.3408 65.3535Z" fill="#AFB1B8"/>
<path d="M86.2871 65.1695V66.5564H85.7726V62.8588H86.9198C87.1364 62.8548 87.3523 62.8821 87.5603 62.9396C87.7268 62.9846 87.8812 63.0631 88.013 63.17C88.1272 63.2701 88.2153 63.3943 88.2702 63.5326C88.3309 63.6835 88.3606 63.844 88.3576 64.0056C88.3599 64.1677 88.3275 64.3286 88.2625 64.4785C88.2006 64.6203 88.1056 64.7469 87.9847 64.8485C87.8527 64.9598 87.6976 65.0433 87.5294 65.0935C87.3292 65.1545 87.1197 65.1835 86.9095 65.1793L86.2871 65.1695ZM86.2871 64.7725H86.9095C87.0447 64.7742 87.1793 64.7552 87.3082 64.7162C87.4145 64.6821 87.5125 64.6279 87.5963 64.5569C87.6736 64.4891 87.7334 64.4052 87.7712 64.3118C87.8133 64.2131 87.8343 64.1073 87.8329 64.0006C87.8389 63.8979 87.8213 63.7951 87.7813 63.6994C87.7413 63.6038 87.68 63.5176 87.6014 63.4469C87.4049 63.3007 87.1581 63.2299 86.9095 63.2484H86.2871V64.7725Z" fill="#AFB1B8"/>
<path d="M93.201 66.5614H92.7946C92.7538 66.5629 92.7138 66.5508 92.6814 66.5271C92.6522 66.504 92.6293 66.4746 92.6145 66.4413L92.2647 65.5468H90.508L90.1453 66.4413C90.132 66.474 90.1098 66.5028 90.081 66.5246C90.0483 66.5497 90.0072 66.5628 89.9652 66.5614H89.5588L91.1021 62.8584H91.6371L93.201 66.5614ZM90.6546 65.1866H92.1053L91.4931 63.6794C91.4463 63.566 91.4076 63.4497 91.3773 63.3314L91.3182 63.525C91.3002 63.5838 91.2796 63.6377 91.2616 63.6818L90.6546 65.1866Z" fill="#AFB1B8"/>
<path d="M95.4233 62.8756C95.4541 62.8917 95.4805 62.9143 95.5005 62.9418L97.7511 65.7331C97.7511 65.689 97.7511 65.6449 97.7511 65.6032C97.7511 65.5616 97.7511 65.5199 97.7511 65.4807V62.8585H98.2115V66.5614H97.9543C97.9178 66.5625 97.8816 66.5549 97.8489 66.5394C97.8171 66.5217 97.7892 66.4984 97.7666 66.4708L95.5185 63.6819C95.521 63.7243 95.521 63.7669 95.5185 63.8093C95.5185 63.851 95.5185 63.8878 95.5185 63.9221V66.5614H95.0581V62.8585H95.3308C95.3626 62.8576 95.3942 62.8635 95.4233 62.8756Z" fill="#AFB1B8"/>
<path d="M102.003 65.0887V66.5591H101.488V65.0887L100.066 62.8586H100.526C100.566 62.8564 100.605 62.8677 100.637 62.8905C100.665 62.9142 100.689 62.9424 100.707 62.9738L101.596 64.4123C101.632 64.4736 101.663 64.5299 101.689 64.5839C101.715 64.6378 101.735 64.6892 101.753 64.7407L101.82 64.5814C101.845 64.5232 101.874 64.4667 101.908 64.4123L102.785 62.964C102.803 62.9351 102.826 62.9087 102.852 62.8856C102.882 62.8602 102.922 62.847 102.962 62.8488H103.428L102.003 65.0887Z" fill="#AFB1B8"/>
<path d="M81.0862 56.6443C81.31 56.6712 81.5363 56.6933 81.7652 56.7129C85.2358 55.2337 88.1718 52.8127 90.2062 49.7526C92.2406 46.6924 93.2832 43.1289 93.2036 39.5073L89.3788 35.8633C90.1565 39.7191 89.7927 43.705 88.3282 47.3751C86.8636 51.0452 84.3561 54.2546 81.0862 56.6443Z" fill="#AFB1B8"/>
<path d="M79.7204 56.4748L79.8233 56.4944C83.3175 54.1132 85.9816 50.788 87.4709 46.9488C88.9603 43.1097 89.2065 38.9331 88.1776 34.9592L82.7298 29.769C84.9333 34.0353 85.8202 38.8098 85.2875 43.5374C84.7547 48.265 82.8242 52.7514 79.7204 56.4748Z" fill="#AFB1B8"/>
<path d="M98.1961 43.7861C97.2706 47.7654 95.0227 51.3541 91.7863 54.0196C90.8411 54.8023 89.8216 55.4996 88.7409 56.1025C91.3763 55.3646 93.7985 54.0598 95.8209 52.289C97.8433 50.5181 99.4119 48.3284 100.406 45.8887L98.1961 43.7861Z" fill="#AFB1B8"/>
<path d="M97.3293 43.2002L94.1835 40.2031C94.1234 43.6201 93.1038 46.9594 91.2307 49.8739C89.3576 52.7885 86.6994 55.1718 83.5323 56.7764H83.5477C84.2535 56.7761 84.9586 56.736 85.6595 56.6563C88.6193 55.5053 91.2339 53.6742 93.2702 51.3262C95.3065 48.9782 96.701 46.1865 97.3293 43.2002Z" fill="#AFB1B8"/>
<path d="M80.1757 27.5803L76.4229 24C73.0681 25.2351 70.1828 27.4064 68.1446 30.2297C66.1065 33.053 65.0105 36.3968 65 39.8234V39.8234C65.0126 43.6097 66.3502 47.2838 68.8012 50.2643C71.2521 53.2448 74.6764 55.3614 78.5321 56.2791C81.974 52.2838 83.9892 47.347 84.2847 42.186C84.5803 37.025 83.1409 31.9086 80.1757 27.5803Z" fill="#AFB1B8"/>
<path d="M106 42.6492C105.986 38.157 104.107 33.8525 100.773 30.676C97.4391 27.4995 92.921 25.7092 88.2059 25.6963C86.0271 25.6941 83.8668 26.0772 81.8347 26.826L104.812 48.7168C105.598 46.7817 106.001 44.7244 106 42.6492Z" fill="#AFB1B8"/>
</svg>
